<svg xmlns="http://www.w3.org/2000/svg" xmlns:xlink="http://www.w3.org/1999/xlink" viewBox="0 0 625.21 697.5"><defs><style>.cls-1{fill:#bdccd4;stroke:#ccc;stroke-width:5px;}.cls-1,.cls-12,.cls-14,.cls-16,.cls-18,.cls-2,.cls-21,.cls-27,.cls-28,.cls-29,.cls-30,.cls-31,.cls-32,.cls-33,.cls-34,.cls-35,.cls-36,.cls-5{stroke-miterlimit:10;}.cls-2{font-size:63px;}.cls-2,.cls-4,.cls-6{fill:#fff;}.cls-12,.cls-14,.cls-16,.cls-18,.cls-2,.cls-21,.cls-27,.cls-28,.cls-29,.cls-30,.cls-31,.cls-32,.cls-33,.cls-34,.cls-35,.cls-36,.cls-5{stroke:#fff;}.cls-2,.cls-29{stroke-width:4px;}.cls-2,.cls-4{font-family:Herculanum, Herculanum;}.cls-3{letter-spacing:-0.04em;}.cls-4{font-size:25px;}.cls-27,.cls-28,.cls-5{stroke-width:3px;}.cls-5{fill:url(#linear-gradient);}.cls-7{fill:url(#linear-gradient-2);}.cls-8{fill:url(#linear-gradient-3);}.cls-9{fill:url(#linear-gradient-4);}.cls-10{fill:url(#linear-gradient-5);}.cls-11{fill:url(#linear-gradient-6);}.cls-12{fill:#a5a5a5;}.cls-13{fill:url(#radial-gradient);}.cls-14{fill:url(#radial-gradient-2);}.cls-15{fill:url(#radial-gradient-3);}.cls-16{fill:url(#radial-gradient-4);}.cls-17{fill:url(#linear-gradient-7);}.cls-18{fill:url(#linear-gradient-8);}.cls-19{fill:url(#linear-gradient-9);}.cls-20{fill:url(#radial-gradient-5);}.cls-21{fill:url(#linear-gradient-10);}.cls-22{fill:url(#linear-gradient-11);}.cls-23{fill:url(#linear-gradient-12);}.cls-24{fill:url(#linear-gradient-13);}.cls-25{fill:url(#linear-gradient-14);}.cls-26{fill:url(#radial-gradient-6);}.cls-27{fill:#fcf751;}.cls-28{fill:#3939ff;}.cls-30{fill:url(#linear-gradient-15);}.cls-31{fill:url(#linear-gradient-16);}.cls-32{fill:url(#linear-gradient-17);}.cls-33{fill:url(#linear-gradient-18);}.cls-34{fill:url(#linear-gradient-19);}.cls-35{fill:url(#linear-gradient-20);}.cls-36{fill:url(#linear-gradient-21);}</style><linearGradient id="linear-gradient" x1="13.32" y1="408" x2="152.32" y2="408" gradientUnits="userSpaceOnUse"><stop offset="0" stop-color="#3fa9f5"/><stop offset="0.44" stop-color="#54d0f6"/><stop offset="0.47" stop-color="#75d2d3"/><stop offset="0.55" stop-color="#c9d87b"/><stop offset="0.6" stop-color="#fddc44"/><stop offset="0.72" stop-color="#fdd841"/><stop offset="0.84" stop-color="#fdce38"/><stop offset="0.95" stop-color="#fcbb29"/><stop offset="0.99" stop-color="#fcb221"/></linearGradient><linearGradient id="linear-gradient-2" x1="1339.53" y1="488.51" x2="1339.53" y2="508.87" gradientTransform="matrix(-1.03, 0.25, -0.23, -0.92, 2339.21, 403.72)" gradientUnits="userSpaceOnUse"><stop offset="0" stop-color="#29abe2"/><stop offset="1" stop-color="#d9e021"/></linearGradient><linearGradient id="linear-gradient-3" x1="1374.39" y1="535.79" x2="1374.39" y2="488.8" xlink:href="#linear-gradient-2"/><linearGradient id="linear-gradient-4" x1="1336.66" y1="491.15" x2="1336.66" y2="501.33" xlink:href="#linear-gradient-2"/><linearGradient id="linear-gradient-5" x1="1293.49" y1="518.22" x2="1308.23" y2="518.22" gradientTransform="matrix(-1.03, 0.25, -0.23, -0.92, 2339.21, 403.72)" gradientUnits="userSpaceOnUse"><stop offset="0" stop-color="#29abe2"/><stop offset="0.53" stop-color="#d9e021"/></linearGradient><linearGradient id="linear-gradient-6" x1="1307.39" y1="516.16" x2="1322.42" y2="516.16" xlink:href="#linear-gradient-5"/><radialGradient id="radial-gradient" cx="682.06" cy="382.92" r="22.55" gradientTransform="matrix(0.94, -0.31, 0.29, 0.87, -21.19, 263.08)" gradientUnits="userSpaceOnUse"><stop offset="0" stop-color="#3fa9f5"/><stop offset="0.36" stop-color="#3ca7f3"/><stop offset="0.57" stop-color="#349feb"/><stop offset="0.75" stop-color="#2693de"/><stop offset="0.9" stop-color="#1281cc"/><stop offset="1" stop-color="#0071bc"/></radialGradient><radialGradient id="radial-gradient-2" cx="682.14" cy="379.3" r="23.34" xlink:href="#radial-gradient"/><radialGradient id="radial-gradient-3" cx="684.25" cy="343.76" r="41.13" gradientTransform="matrix(0.26, 0.88, -0.98, 0.29, 882.75, -355.36)" xlink:href="#radial-gradient"/><radialGradient id="radial-gradient-4" cx="683.57" cy="354.63" r="71.31" xlink:href="#radial-gradient"/><linearGradient id="linear-gradient-7" x1="584.15" y1="339.66" x2="584.15" y2="360.03" gradientTransform="translate(-63.62 131.33) rotate(-10.5)" xlink:href="#linear-gradient-2"/><linearGradient id="linear-gradient-8" x1="550.86" y1="309.19" x2="814.32" y2="309.19" gradientTransform="matrix(0.94, -0.31, 0.29, 0.87, -21.19, 263.08)" gradientUnits="userSpaceOnUse"><stop offset="0.02" stop-color="#0071bc"/><stop offset="0.55" stop-color="#3fa9f5"/><stop offset="0.71" stop-color="#3ca7f3"/><stop offset="0.81" stop-color="#349feb"/><stop offset="0.88" stop-color="#2693de"/><stop offset="0.95" stop-color="#1281cc"/><stop offset="1" stop-color="#0071bc"/></linearGradient><linearGradient id="linear-gradient-9" x1="562.15" y1="329.46" x2="801.72" y2="329.46" gradientTransform="matrix(0.94, -0.31, 0.29, 0.87, -21.19, 263.08)" gradientUnits="userSpaceOnUse"><stop offset="0.02" stop-color="#d9e021"/><stop offset="0.55" stop-color="#3fa9f5"/><stop offset="0.6" stop-color="#4daee1"/><stop offset="0.72" stop-color="#72bbae"/><stop offset="0.89" stop-color="#add05d"/><stop offset="1" stop-color="#d9e021"/></linearGradient><radialGradient id="radial-gradient-5" cx="681.82" cy="291.96" r="120.94" gradientTransform="matrix(0.94, -0.31, 0.08, 0.23, 41.49, 447.32)" xlink:href="#radial-gradient"/><linearGradient id="linear-gradient-10" x1="652.43" y1="326.52" x2="809" y2="326.52" xlink:href="#linear-gradient-8"/><linearGradient id="linear-gradient-11" x1="619.01" y1="386.94" x2="619.01" y2="339.95" gradientTransform="translate(-63.62 131.33) rotate(-10.5)" xlink:href="#linear-gradient-2"/><linearGradient id="linear-gradient-12" x1="581.28" y1="342.3" x2="581.28" y2="352.49" gradientTransform="translate(-63.62 131.33) rotate(-10.5)" xlink:href="#linear-gradient-2"/><linearGradient id="linear-gradient-13" x1="538.11" y1="369.37" x2="552.85" y2="369.37" gradientTransform="translate(-63.62 131.33) rotate(-10.5)" xlink:href="#linear-gradient-5"/><linearGradient id="linear-gradient-14" x1="552.01" y1="367.31" x2="567.04" y2="367.31" gradientTransform="translate(-63.62 131.33) rotate(-10.5)" xlink:href="#linear-gradient-5"/><radialGradient id="radial-gradient-6" cx="681.94" cy="292.2" r="115.16" gradientTransform="matrix(0.94, -0.31, 0.05, 0.15, 49.24, 473.56)" gradientUnits="userSpaceOnUse"><stop offset="0" stop-color="#0071bc"/><stop offset="0.17" stop-color="#0272bb"/><stop offset="0.24" stop-color="#0975b7"/><stop offset="0.28" stop-color="#147baf"/><stop offset="0.32" stop-color="#2584a5"/><stop offset="0.35" stop-color="#3b8e97"/><stop offset="0.38" stop-color="#579c87"/><stop offset="0.4" stop-color="#77ac73"/><stop offset="0.43" stop-color="#9dbf5c"/><stop offset="0.45" stop-color="#c8d441"/><stop offset="0.47" stop-color="#f6eb25"/><stop offset="0.47" stop-color="#fcee21"/><stop offset="0.52" stop-color="#f6ec26"/><stop offset="0.58" stop-color="#e6e735"/><stop offset="0.65" stop-color="#cbde4e"/><stop offset="0.73" stop-color="#a5d271"/><stop offset="0.82" stop-color="#74c39d"/><stop offset="0.9" stop-color="#3ab0d3"/><stop offset="0.93" stop-color="#29abe2"/><stop offset="1" stop-color="#0071bc"/></radialGradient><linearGradient id="linear-gradient-15" x1="297.88" y1="76.75" x2="297.88" y2="25.37" gradientUnits="userSpaceOnUse"><stop offset="0" stop-color="#fff"/><stop offset="0.42" stop-color="#3fa9f5"/><stop offset="0.48" stop-color="#3680d8"/><stop offset="0.52" stop-color="#2f60c2"/><stop offset="0.53" stop-color="#4872c7"/><stop offset="0.58" stop-color="#809bd2"/><stop offset="0.61" stop-color="#acbbdb"/><stop offset="0.65" stop-color="#ccd3e1"/><stop offset="0.68" stop-color="#dfe1e5"/><stop offset="0.7" stop-color="#e6e6e6"/></linearGradient><linearGradient id="linear-gradient-16" x1="835.11" y1="119.25" x2="835.11" y2="67.87" xlink:href="#linear-gradient-15"/><linearGradient id="linear-gradient-17" x1="465.98" y1="119.25" x2="465.98" y2="67.87" xlink:href="#linear-gradient-15"/><linearGradient id="linear-gradient-18" x1="570.44" y1="119.25" x2="570.44" y2="67.87" xlink:href="#linear-gradient-15"/><linearGradient id="linear-gradient-19" x1="781.39" y1="119.25" x2="781.39" y2="67.87" xlink:href="#linear-gradient-15"/><linearGradient id="linear-gradient-20" x1="739.93" y1="179.3" x2="739.93" y2="124.85" gradientUnits="userSpaceOnUse"><stop offset="0" stop-color="#fff"/><stop offset="0.32" stop-color="#eec03f"/><stop offset="0.42" stop-color="#f3e168"/><stop offset="0.52" stop-color="#f8ff8e"/><stop offset="0.56" stop-color="#f2f6ac"/><stop offset="0.62" stop-color="#ebedcc"/><stop offset="0.66" stop-color="#e7e8df"/><stop offset="0.7" stop-color="#e6e6e6"/></linearGradient><linearGradient id="linear-gradient-21" x1="435.16" y1="132.32" x2="435.16" y2="82.35" xlink:href="#linear-gradient-20"/></defs><title>label</title><g id="Layer_2" data-name="Layer 2"><rect class="cls-1" x="4.82" y="2.5" width="508" height="655"/><text class="cls-2" transform="translate(178.68 461.43)">Rice<tspan class="cls-3" x="123.67" y="0"> </tspan><tspan x="138.85" y="0">Wine</tspan><tspan x="69.39" y="75.6" xml:space="preserve"> Sake</tspan></text><text class="cls-4" transform="translate(408.82 639.55)">16%Alc</text><text class="cls-4" transform="translate(167.82 640.55)">3.5L</text></g><g id="Layer_1" data-name="Layer 1"><rect class="cls-5" x="13.32" y="166" width="139" height="484"/><polygon class="cls-6" points="71.58 176 109.56 209.75 145.82 207 110.41 245 52.16 199 52.16 223 21.32 223 21.32 176 71.58 176"/><polygon class="cls-6" points="89.32 171 98.32 171 103.32 176 99.32 188 89.32 188 89.32 171"/><polygon class="cls-6" points="105.32 171 114.32 171 119.32 176 115.32 188 105.32 188 105.32 171"/><polygon class="cls-6" points="50.32 233 22.82 260.5 38.82 276.5 51.82 263.5 64.32 285 79.32 266 65.32 250 75.32 240 59.82 224.5 50.32 233"/><path class="cls-6" d="M417.5,330.5l105.16.41s-14.27,85-62.16,86.59l-16-22,16,3s32-25,33-52h-76Z" transform="translate(-396.18 -42.5)"/><rect class="cls-6" x="95.82" y="320.71" width="47" height="19.08"/><polygon class="cls-6" points="105.99 276.31 116.35 274.96 122.86 279.96 120.06 294.37 108.55 295.87 105.99 276.31"/><polygon class="cls-6" points="124.41 273.9 134.76 272.55 141.27 277.55 138.47 291.96 126.96 293.47 124.41 273.9"/><polygon class="cls-6" points="66.01 387.94 74.12 386.88 79.22 390.8 77.03 402.09 68.01 403.26 66.01 387.94"/><polygon class="cls-6" points="80.43 386.06 88.54 385 93.64 388.92 91.45 400.2 82.43 401.38 80.43 386.06"/><polygon class="cls-6" points="21.32 383 60.32 383 43.32 400 43.32 419 81.32 419 64.32 436 43.32 436 43.32 461 22.32 461 21.32 383"/><polygon class="cls-6" points="118.32 378 146.32 385 117.32 468 96.32 461 118.32 378"/><polygon class="cls-6" points="21.32 494 37.32 478 72.32 543 54.82 560.5 21.32 494"/><rect class="cls-6" x="65.32" y="501" width="27" height="11"/><polygon class="cls-6" points="86.32 478 86.32 491 116.32 491 86.32 545 108.32 545 120.32 525 128.32 545 146.32 545 131.32 506 146.32 478 86.32 478"/><polygon class="cls-6" points="21.32 564 50.32 564 49.82 580.5 109.82 580.5 89.32 601 48.32 601 48.32 634 39.32 643 21.32 643 21.32 564"/><polygon class="cls-6" points="69.32 608 93.82 632.5 81.32 645 57.32 621 69.32 608"/><path class="cls-6" d="M523,633a21,21,0,1,0,21,21A21,21,0,0,0,523,633Zm.69,32.36A11.36,11.36,0,1,1,535.05,654,11.36,11.36,0,0,1,523.69,665.36Z" transform="translate(-396.18 -42.5)"/></g><g id="Layer_4" data-name="Layer 4"><path class="cls-6" d="M826.52,300.5s72.07-16.77,76.73-46.47c-4.62-20.74-69.81-8.32-69.25-8.34,0,0,28.16-3.68,29.18.49,0,0-97,4.47-165.76,53.81,0,0,60-39,156.48-45.32l5,5.59S801.79,257,739.4,291.52C761.55,276.84,904,250.52,826.52,300.5Z" transform="translate(-396.18 -42.5)"/><path class="cls-7" d="M836.51,294.93s33-9.92,32.5-19.36l-5.32,4.24s.79-7.92-12.06-8.45C851.63,271.36,869.26,280.29,836.51,294.93Z" transform="translate(-396.18 -42.5)"/><path class="cls-8" d="M854.44,290.25s38.33-17.81,16.91-27.41c0,0,3.49,3.16-8.46,13.71,0,0,2-23.31-91.89.25,0,0,56.46-18.87,90.46-13.55,0,0,3.17-5.59-1.58-6.43,0,0,12.37-1.43,20-.07,0,0-47-17.79-156.56,28.28,0,0,62.19-31.67,137.13-37.17,0,0,18.83-1,3.64-3.7,0,0,39.37-2.41,34.6,15.21S854.44,290.25,854.44,290.25Z" transform="translate(-396.18 -42.5)"/><path class="cls-9" d="M850.48,288.93s14.49-7.59,8.85-12.1C859.33,276.83,860.52,281.69,850.48,288.93Z" transform="translate(-396.18 -42.5)"/><path class="cls-10" d="M894.64,261.55s7.6-13.5-17.39-15.41C877.25,246.14,895.11,248.6,894.64,261.55Z" transform="translate(-396.18 -42.5)"/><path class="cls-11" d="M881.63,260.32s-11.4-2-14.82-1.19l-1.07,3.07-1.11-4.54S878.9,256.58,881.63,260.32Z" transform="translate(-396.18 -42.5)"/><polygon class="cls-12" points="326.37 347.63 338.43 353.04 345.01 341.07 326.37 347.63"/><path class="cls-13" d="M709.74,392.53c-4.47,0-7.34-.93-7.89-2.55-1.22-3.66,9-11.45,26.28-17.22,8.75-2.93,17.3-4.61,23.47-4.61,4.47,0,7.35.93,7.89,2.55.63,1.89-1.73,4.8-6.48,8a85.45,85.45,0,0,1-19.8,9.23C724.46,390.85,715.91,392.53,709.74,392.53Z" transform="translate(-396.18 -42.5)"/><path class="cls-6" d="M751.6,367.65v1c4.18,0,6.95.83,7.41,2.21s-1,3.87-6.28,7.42a85.24,85.24,0,0,1-19.68,9.17c-8.7,2.91-17.19,4.58-23.31,4.58-4.18,0-7-.82-7.41-2.2s1-3.88,6.28-7.42a84.82,84.82,0,0,1,19.68-9.18c8.7-2.91,17.19-4.58,23.31-4.58v-1m0,0c-6,0-14.51,1.58-23.62,4.63-16.18,5.42-28.09,13.41-26.6,17.86.65,1.94,3.74,2.89,8.36,2.89,6,0,14.51-1.58,23.63-4.63C749.54,383,761.45,375,760,370.54c-.65-1.94-3.74-2.89-8.36-2.89Z" transform="translate(-396.18 -42.5)"/><path d="M705.55,380c-4.47,0-7.35-.93-7.89-2.55-.63-1.89,1.73-4.8,6.48-8a85.25,85.25,0,0,1,19.8-9.23c8.75-2.93,17.3-4.61,23.47-4.61,4.47,0,7.34.93,7.88,2.55.64,1.89-1.72,4.8-6.47,8A85.34,85.34,0,0,1,729,375.39C720.27,378.32,711.72,380,705.55,380Z" transform="translate(-396.18 -42.5)"/><path class="cls-6" d="M747.41,355.12v1c4.18,0,7,.82,7.41,2.2s-1,3.88-6.28,7.42a84.82,84.82,0,0,1-19.68,9.18c-8.7,2.91-17.2,4.58-23.31,4.58-4.18,0-6.95-.83-7.42-2.21s1-3.87,6.29-7.42a85.24,85.24,0,0,1,19.68-9.17c8.7-2.91,17.19-4.58,23.31-4.58v-1m0,0c-6,0-14.51,1.58-23.63,4.63-16.18,5.41-28.08,13.41-26.59,17.86.65,1.94,3.74,2.89,8.36,2.89,6,0,14.5-1.58,23.62-4.63,16.18-5.42,28.09-13.41,26.6-17.86-.65-1.94-3.74-2.89-8.36-2.89Z" transform="translate(-396.18 -42.5)"/><path class="cls-14" d="M759.44,368.72c1.49,4.45-10.41,12.45-26.59,17.86s-30.5,6.2-32,1.75l-3.59-10.75c1.48,4.45,15.81,3.67,32-1.74s28.09-13.41,26.6-17.86Z" transform="translate(-396.18 -42.5)"/><path class="cls-15" d="M652.14,393.54c-7.11,0-11.28-1.22-12-3.53-1.26-3.77,6.38-10.52,21-18.52,15-8.23,35.74-16.93,58.36-24.5,31.18-10.43,60.76-16.91,77.2-16.91,7.11,0,11.28,1.21,12,3.52,1.26,3.77-6.38,10.52-21,18.52-15,8.23-35.74,16.94-58.36,24.5C698.16,387.06,668.58,393.54,652.14,393.54Z" transform="translate(-396.18 -42.5)"/><path class="cls-6" d="M796.63,329.58v1c6.68,0,10.9,1.16,11.58,3.18.43,1.3.22,6.43-20.75,17.92-15,8.22-35.69,16.91-58.28,24.47-31.13,10.42-60.65,16.89-77,16.89-6.68,0-10.9-1.16-11.57-3.18-.44-1.3-.23-6.44,20.74-17.93,15-8.22,35.69-16.91,58.28-24.47,31.13-10.41,60.65-16.88,77-16.88v-1m0,0c-15.92,0-45.08,6.13-77.36,16.94-46.82,15.66-82.48,35.21-79.65,43.65.87,2.62,5.36,3.87,12.52,3.87,15.92,0,45.08-6.14,77.36-16.94,46.82-15.67,82.48-35.21,79.65-43.66-.87-2.62-5.36-3.86-12.52-3.86Z" transform="translate(-396.18 -42.5)"/><path d="M644.18,369.75c-7.11,0-11.28-1.22-12-3.52-1.26-3.77,6.38-10.53,21-18.52,15-8.24,35.74-16.94,58.36-24.5,31.18-10.44,60.76-16.92,77.2-16.92,7.11,0,11.28,1.22,12.05,3.52,1.26,3.78-6.38,10.53-21,18.53-15,8.23-35.74,16.93-58.36,24.5C690.21,363.27,660.62,369.75,644.18,369.75Z" transform="translate(-396.18 -42.5)"/><path class="cls-6" d="M788.67,305.79v1c6.68,0,10.9,1.16,11.58,3.18.43,1.3.22,6.44-20.75,17.93-15,8.22-35.69,16.91-58.27,24.46-31.14,10.42-60.66,16.89-77.05,16.89-6.68,0-10.9-1.16-11.57-3.18-.44-1.3-.23-6.43,20.74-17.93,15-8.21,35.69-16.9,58.28-24.46,31.13-10.42,60.65-16.89,77-16.89v-1m0,0c-15.92,0-45.08,6.14-77.36,16.94-46.82,15.67-82.48,35.21-79.65,43.66.87,2.62,5.36,3.86,12.52,3.86,15.92,0,45.08-6.13,77.36-16.94,46.82-15.66,82.48-35.21,79.65-43.65-.87-2.63-5.36-3.87-12.52-3.87Z" transform="translate(-396.18 -42.5)"/><path class="cls-16" d="M808.25,330c2.82,8.44-32.84,28-79.65,43.65s-87.06,21.52-89.89,13.08l-8.42-2.85,1.6-17.54c2.82,8.45,43.07,2.59,89.88-13.07s82.48-35.22,79.65-43.66l14.47,12.48Z" transform="translate(-396.18 -42.5)"/><path class="cls-6" d="M599.13,350.73s-69,11.88-74.44,42.66c3.67,22.12,66,14.26,65.46,14.23,0,0-26.87,1.63-27.69-2.82,0,0,92.24,3,159.22-43.3,0,0-58.26,36.1-150.13,35.13L567,390.36s54.11,8,114.53-23.31C660,380.69,523.87,397,599.13,350.73Z" transform="translate(-396.18 -42.5)"/><path class="cls-17" d="M589.46,355.78s-31.67,7.79-31.53,17.73l5.2-4s-1,8.24,11.16,9.82C574.29,379.3,557.86,368.54,589.46,355.78Z" transform="translate(-396.18 -42.5)"/><path class="cls-18" d="M832.86,272.76c-2.35-7-59.68,5.79-128,28.66S583,348.55,585.32,355.6l5.69,17c-2.36-7,51.14-31.3,119.5-54.17s125.69-35.71,128-28.66Z" transform="translate(-396.18 -42.5)"/><path class="cls-19" d="M618.74,376.54c-9.57,0-15.18-1.66-16.23-4.81-3.61-10.79,44.88-37.16,105.89-57.57,41.58-13.92,81.05-22.56,103-22.56,9.56,0,15.17,1.66,16.22,4.81,1.71,5.11-8.51,14.19-28,24.89-20,11-47.68,22.59-77.85,32.68C680.14,367.9,640.67,376.54,618.74,376.54Z" transform="translate(-396.18 -42.5)"/><path class="cls-6" d="M811.39,291.1v1c9.19,0,14.78,1.58,15.75,4.47,3.14,9.38-38.53,34.51-105.57,56.94C680,367.41,640.62,376,618.74,376c-9.2,0-14.79-1.58-15.76-4.47-1.6-4.79,8.8-13.87,27.82-24.3,20-11,47.62-22.55,77.76-32.64,41.54-13.9,80.94-22.53,102.83-22.53v-1m0,0c-21.23,0-60.11,8.18-103.15,22.58-62.42,20.89-110,46.95-106.2,58.21,1.17,3.5,7.14,5.15,16.7,5.15,21.22,0,60.1-8.18,103.14-22.58,62.43-20.89,110-46.95,106.21-58.21-1.17-3.5-7.15-5.15-16.7-5.15Z" transform="translate(-396.18 -42.5)"/><path class="cls-20" d="M814.22,290.5c3.91,11.66-31.55,37.95-93.89,58.81S609.93,375.09,606,363.43L591,337.81c3.91,11.66,57.6,4.21,119.94-16.65s104.17-41.34,105.71-55.08Z" transform="translate(-396.18 -42.5)"/><path class="cls-21" d="M837.46,288.55S789.39,327,721,349.88s-131.17,21.36-131.17,21.36l-8.7-3.54,3.76-11.2c1.65,4.92,62.05-.75,130.41-23.63s118.79-54.29,116.43-61.33l11.17,6.83Z" transform="translate(-396.18 -42.5)"/><path class="cls-22" d="M572.27,359.26s-37,15.64-17,27.42c0,0-3.21-3.59,8.5-13.71,0,0-2.73,24.28,87.25,7,0,0-54.25,15.32-86.35,7,0,0-3.2,5.61,1.28,6.87,0,0-11.8.51-19-1.51,0,0,44,22.39,149.62-17.25,0,0-60.13,28.29-131.48,28.12,0,0-17.91-.45-3.58,3.59,0,0-37.46-.59-32.33-18.7S572.27,359.26,572.27,359.26Z" transform="translate(-396.18 -42.5)"/><path class="cls-23" d="M576,361s-14,6.82-8.81,12C567.17,373,566.21,367.76,576,361Z" transform="translate(-396.18 -42.5)"/><path class="cls-24" d="M533.11,386.18s-7.67,13.56,16,17.54C549.1,403.72,532.23,399.73,533.11,386.18Z" transform="translate(-396.18 -42.5)"/><path class="cls-25" d="M545.43,388.5s10.75,3,14,2.42l1.12-3.13.9,4.85S547.89,392.65,545.43,388.5Z" transform="translate(-396.18 -42.5)"/><path class="cls-26" d="M607.94,344.26c-9.57,0-15.18-1.66-16.23-4.81-1.71-5.11,8.51-14.19,28-24.89,20-11,47.68-22.59,77.85-32.68,41.58-13.92,81-22.56,103-22.56,9.57,0,15.18,1.66,16.23,4.81,1.71,5.11-8.51,14.19-28,24.89-20,11-47.67,22.59-77.84,32.68C669.34,335.62,629.87,344.26,607.94,344.26Z" transform="translate(-396.18 -42.5)"/><path class="cls-6" d="M800.58,258.82v1c9.2,0,14.79,1.58,15.76,4.47,1.6,4.79-8.8,13.87-27.82,24.3-20,11-47.62,22.56-77.76,32.64-41.54,13.9-80.94,22.53-102.82,22.53-9.2,0-14.79-1.58-15.76-4.47-1.6-4.79,8.8-13.87,27.82-24.3,20-11,47.62-22.55,77.75-32.64,41.54-13.9,81-22.53,102.83-22.53v-1m0,0c-21.22,0-60.1,8.18-103.14,22.58-62.42,20.89-110,47-106.21,58.21,1.17,3.5,7.15,5.15,16.71,5.15,21.22,0,60.1-8.18,103.14-22.58,62.42-20.89,110-46.95,106.2-58.21-1.17-3.5-7.14-5.15-16.7-5.15Z" transform="translate(-396.18 -42.5)"/></g><g id="Layer_3" data-name="Layer 3"><path class="cls-27" d="M592.72,122.52l107.41,2.11,57.92,62.2-7.32,7.22c-13.89,16.3-27.45,28-42.19,34.95,15.42-13.34,24.82-23.36,17.75-24.29l-14-14.72-53.6,4.95,10.73-26.81-32.79-10.82-28-4.22,25.22-14.76,7.44-1Z" transform="translate(-396.18 -42.5)"/><path class="cls-28" d="M582.44,132c.93,1.05,99.95-3.17-32.69,33.73,0,0,55.11-2.11,54.17-2.11s15,7.38-138.24,22.14c0,0,64.45,3.17,123.3-9.48l-38.3,9.48s79.4-8.43,94.34-12.65c0,0,8.41,0,8.41,6.33s-169.07,15.81-169.07,15.81,81.27,3.17,166.27-7.38l-16.82,19S752.44,174.18,708.54,229c55.07-43.14,18.67-48.52-48.57-35.85,0,0,33.62-29.52-1.87-36.9l-45.77-1.05s59.78-14.76,29-23.19Z" transform="translate(-396.18 -42.5)"/><path class="cls-29" d="M419.45,59.48,492.77,59a19.1,19.1,0,0,1,13.08,8.59l2.8-8.59H567.5l8.4,14.31L591.78,59h52.31s9.34,2.86,12.14,7.63L658.1,59h88.74l3.73,22.89L759,59h43s10.27,2.86,12.14,7.63l2.8-7.63h75.66l-35.49,41,26.84,19L864.23,152l12.52,28.6s-102.83,5-136.45,25c0,0,26.51-43.2-66.43-19.65,0,0,29.53-29.38-9.7-33.2,0,0,58.85-26.55-47.64-24.64l-213.9,1,31.76-21.94,6.54-20Z" transform="translate(-396.18 -42.5)"/><polygon class="cls-30" points="267.99 25.37 253.98 65.54 244.64 76.75 298.82 76.75 331.51 33.78 334.31 52.46 322.17 52.46 315.63 61.8 336.18 61.8 338.05 76.75 351.13 76.75 343.65 25.37 303.49 25.37 316.56 34.71 293.21 63.67 296.02 70.21 291.35 64.6 267.99 64.6 282.94 25.37 267.99 25.37"/><path class="cls-31" d="M823,67.87,809,107.1s-4.67,7.48-11.21,12.15H867.8L852.85,109H822l4.67-11.21,19.61.94,8.41-9.34-25.22-.94,3.74-10.27h30.82l8.41-10.28Z" transform="translate(-396.18 -42.5)"/><path class="cls-32" d="M490.44,67.87H442.8l6.54,9.34H454l-13.08,35.5-9.34,6.54h44.83c30.83-10.28,17.75-28,17.75-28C510.05,69.74,490.44,67.87,490.44,67.87Zm-11.68,41.57H453.54l3.74-12.14H482.5C490,105.7,478.76,109.44,478.76,109.44Zm3.74-20.55H461l4.67-11.21h20.55C492.77,84.22,482.5,88.89,482.5,88.89Z" transform="translate(-396.18 -42.5)"/><path class="cls-33" d="M642.69,68.81H596.92L574.5,86.55,562.36,67.87h-46.7l-14,39.23s-5.6,7.48-12.14,12.15h47.64L553,109H513.79l4.67-11.21h22.41L553,89.36H521.26l4.67-11.21h25.22l8.41-6.54-4.67,7.47L567,97.76l-5.61,14-10.27,6.54H571.7L580.11,95l22.41-17.75h1.87l-12.14,34.56-9.34,6.54h47.64s26.15-12.14,14.94-27.08C645.49,91.23,660.44,72.54,642.69,68.81Zm-12.61,40.63H604.86l4.67-12.14h25.22C640.35,105.7,630.08,109.44,630.08,109.44Zm2.8-20.55H612.33l3.74-11.21h20.55C645,83.29,632.88,88.89,632.88,88.89Z" transform="translate(-396.18 -42.5)"/><path class="cls-34" d="M802.41,67.87H765.05L751,107.1l1.87,12.15H785.6C789.34,117.38,829.5,88.42,802.41,67.87Zm-2.8,23.36C794,107.1,780.93,109,780.93,109H763.18l12.15-31.76h17.74C802.41,81,799.61,91.23,799.61,91.23Z" transform="translate(-396.18 -42.5)"/><path class="cls-35" d="M735.51,168.75s-4.09,6.07-10.48,6.07H702.94l-15.21,4.48,7.15-15.19,23.47,0c5.54,0,5.12-9.81.6-9.81h-18.1c-13.56-.32-12.87-28.81.68-28.48l38.3-.94s-11.67,7.94-12.61,8.88-18.21.46-18.21.46c-5.82,0-5.82,10.28,0,10.28l21.22-.47c4.17,1.12,6.19,7.39,5.86,14.48l21.49-24.54-14-9.09h41.1l7.47,50H779.06l-1.87-14.53H756.64l6.54-9.09h12.15L772.52,133l-32.69,41.79Z" transform="translate(-396.18 -42.5)"/><polygon class="cls-36" points="420.51 131.4 410.01 117.52 408.26 132.32 398.79 132.32 396.89 118.78 401.27 82.35 413.51 82.35 411.76 95.31 423.57 82.81 436.25 82.81 417.01 107.34 427.71 122.06 438.94 82.82 473.42 82.82 467.56 92.53 446.1 92.53 443.5 102.25 461.06 103.13 455.21 111.96 441.55 111.08 438.29 121.68 459.76 121.68 465.11 131.86 420.51 131.4"/></g></svg>